<svg viewBox="0 0 8 8" width="100%" height="100%" xmlns="http://www.w3.org/2000/svg" xmlns:xlink="http://www.w3.org/1999/xlink" style="display:block">
  <rect width="5" height="1" fill="black"/>
  <rect x="1" y="1" width="3" height="1" fill="black"/>
  <rect x="5" y="1" width="1" height="1" fill="black"/>
  <rect x="2" y="2" width="1" height="1" fill="black"/>
  <rect x="6" y="2" width="1" height="1" fill="black"/>
  <rect x="1" y="3" width="1" height="1" fill="black"/>
  <rect x="5" y="3" width="3" height="1" fill="black"/>
  <rect x="0" y="4" width="1" height="1" fill="black"/>
  <rect x="4" y="4" width="4" height="1" fill="black"/>
  <rect x="3" y="5" width="1" height="1" fill="black"/>
  <rect x="5" y="5" width="3" height="1" fill="black"/>
  <rect x="2" y="6" width="1" height="1" fill="black"/>
  <rect x="6" y="6" width="1" height="1" fill="black"/>
  <rect x="1" y="7" width="3" height="1" fill="black"/>
  <rect x="7" y="7" width="1" height="1" fill="black"/>
</svg>
